<svg xmlns="http://www.w3.org/2000/svg" viewBox="0 0 1060 565" width="100%" height="100%" style="background-color: #0b0e14; font-family: 'JetBrains Mono', Consolas, Menlo, monospace;">
  <defs>
    <style>
      .grid-border { stroke: #1e2638; stroke-width: 1; fill: none; }
      .col-header-bg { fill: #121824; stroke: #1e2638; stroke-width: 1; }
      .row-even { fill: #0f141f; }
      .row-odd { fill: #0b0e17; }
      .center-row-bg { fill: #162032; }
      .bid-ask-divider { stroke: rgba(255, 255, 255, 0.05); stroke-width: 1; }
      .major-col-divider { stroke: #1e2638; stroke-width: 1.5; }
      
      .text-meta { fill: #64748b; font-size: 11px; font-weight: 500; }
      .text-header { fill: #94a3b8; font-size: 11px; font-weight: 700; letter-spacing: 0.5px; }
      .text-idx { fill: #38bdf8; font-size: 10px; font-weight: 600; }
      .text-price { fill: #f8fafc; font-size: 11.5px; font-weight: 700; }
      .text-idy { fill: #f59e0b; font-size: 11px; font-weight: 600; }
      
      .val-fixed { fill: #e2e8f0; font-size: 11px; font-weight: 600; }
      .val-float { fill: #64748b; font-size: 9.5px; font-weight: 400; }
      .val-zero { fill: #334155; font-size: 10px; }
      
      .val-bid-high { fill: #fca5a5; font-size: 11px; font-weight: 700; }
      .val-ask-high { fill: #86efac; font-size: 11px; font-weight: 700; }
      .val-delta-pos { fill: #4ade80; font-size: 11px; font-weight: 600; }
      .val-delta-neg { fill: #f87171; font-size: 11px; font-weight: 600; }
    </style>
  </defs>

  <!-- Заголовок -->
  <g transform="translate(20, 15)">
    <rect width="1020" height="40" rx="4" fill="#121722" stroke="#1e2638" stroke-width="1"/>
    <circle cx="20" cy="20" r="4.5" fill="#38bdf8"/>
    <text x="34" y="24" fill="#f8fafc" font-size="12.5px" font-weight="700">IMPRINT // FPArray base [rows=11, cols=6]</text>
    <text x="440" y="24" class="text-meta">PRICE: $50.00 (mult: 100) | LOT: 0.001 (mult: 1000) | SCALE: 5 TICKS ($0.05)</text>
  </g>

  <!-- Шапка колонок (X-AXIS) -->
  <rect x="20" y="62" width="130" height="40" class="col-header-bg"/>
  <text x="85" y="78" class="text-header" text-anchor="middle">Y-AXIS</text>
  <text x="85" y="93" class="text-meta" text-anchor="middle">idy / Price (nPrice)</text>

  <rect x="150" y="62" width="230" height="40" class="col-header-bg"/>
  <text x="265" y="78" class="text-header" text-anchor="middle">BAR 0 (idx &amp; ~1 = 0)</text>
  <line x1="265" y1="83" x2="265" y2="102" class="bid-ask-divider"/>
  <text x="207" y="94" class="text-idx" text-anchor="middle">idx 0 [Sell / Bid]</text>
  <text x="322" y="94" class="text-idx" text-anchor="middle">idx 1 [Buy / Ask]</text>

  <rect x="380" y="62" width="230" height="40" class="col-header-bg"/>
  <text x="495" y="78" class="text-header" text-anchor="middle">BAR 1 (idx &amp; ~1 = 2)</text>
  <line x1="495" y1="83" x2="495" y2="102" class="bid-ask-divider"/>
  <text x="437" y="94" class="text-idx" text-anchor="middle">idx 2 [Sell / Bid]</text>
  <text x="552" y="94" class="text-idx" text-anchor="middle">idx 3 [Buy / Ask]</text>

  <rect x="610" y="62" width="215" height="40" class="col-header-bg"/>
  <text x="717" y="78" class="text-header" text-anchor="middle">VOLUME PROFILE</text>
  <text x="717" y="94" fill="#eab308" font-size="10px" font-weight="600" text-anchor="middle">colVP = -2 (idx 4)</text>

  <rect x="825" y="62" width="215" height="40" class="col-header-bg"/>
  <text x="932" y="78" class="text-header" text-anchor="middle">DELTA PROFILE</text>
  <text x="932" y="94" fill="#a855f7" font-size="10px" font-weight="600" text-anchor="middle">colDP = -1 (idx 5)</text>

  <!-- 11 СТРОК МАТРИЦЫ (38px высота) -->
  <!-- РЯД 0 -->
  <g transform="translate(0, 102)">
    <rect x="20" y="0" width="1020" height="38" class="row-even"/>
    <text x="35" y="24" class="text-idy">0</text><text x="70" y="24" class="text-price">$50.25</text><text x="115" y="24" class="text-meta">5025</text>
    <text x="207" y="24" class="val-zero" text-anchor="middle">0 (0.00)</text><line x1="265" y1="0" x2="265" y2="38" class="bid-ask-divider"/><text x="322" y="24" class="val-zero" text-anchor="middle">0 (0.00)</text>
    <text x="437" y="24" class="val-fixed" text-anchor="middle">100 <tspan class="val-float">(0.10)</tspan></text><line x1="495" y1="0" x2="495" y2="38" class="bid-ask-divider"/><text x="552" y="24" class="val-fixed" text-anchor="middle">500 <tspan class="val-float">(0.50)</tspan></text>
    <rect x="615" y="6" width="18" height="26" fill="#38bdf8" opacity="0.18" rx="2"/><text x="625" y="24" class="val-fixed">600 <tspan class="val-float">(0.60)</tspan></text>
    <rect x="830" y="6" width="22" height="26" fill="#4ade80" opacity="0.25" rx="2"/><text x="840" y="24" class="val-delta-pos">+400 <tspan class="val-float">(+0.40)</tspan></text>
  </g>

  <!-- РЯД 1 -->
  <g transform="translate(0, 140)">
    <rect x="20" y="0" width="1020" height="38" class="row-odd"/>
    <text x="35" y="24" class="text-idy">1</text><text x="70" y="24" class="text-price">$50.20</text><text x="115" y="24" class="text-meta">5020</text>
    <text x="207" y="24" class="val-zero" text-anchor="middle">0 (0.00)</text><line x1="265" y1="0" x2="265" y2="38" class="bid-ask-divider"/><text x="322" y="24" class="val-zero" text-anchor="middle">0 (0.00)</text>
    <text x="437" y="24" class="val-fixed" text-anchor="middle">600 <tspan class="val-float">(0.60)</tspan></text><line x1="495" y1="0" x2="495" y2="38" class="bid-ask-divider"/><text x="552" y="24" class="val-ask-high" text-anchor="middle">2800 <tspan class="val-float">(2.80)</tspan></text>
    <rect x="615" y="6" width="45" height="26" fill="#38bdf8" opacity="0.25" rx="2"/><text x="625" y="24" class="val-fixed">3400 <tspan class="val-float">(3.40)</tspan></text>
    <rect x="830" y="6" width="48" height="26" fill="#4ade80" opacity="0.30" rx="2"/><text x="840" y="24" class="val-delta-pos">+2200 <tspan class="val-float">(+2.20)</tspan></text>
  </g>

  <!-- РЯД 2 -->
  <g transform="translate(0, 178)">
    <rect x="20" y="0" width="1020" height="38" class="row-even"/>
    <text x="35" y="24" class="text-idy">2</text><text x="70" y="24" class="text-price">$50.15</text><text x="115" y="24" class="text-meta">5015</text>
    <text x="207" y="24" class="val-fixed" text-anchor="middle">400 <tspan class="val-float">(0.40)</tspan></text><line x1="265" y1="0" x2="265" y2="38" class="bid-ask-divider"/><text x="322" y="24" class="val-fixed" text-anchor="middle">200 <tspan class="val-float">(0.20)</tspan></text>
    <text x="437" y="24" class="val-fixed" text-anchor="middle">1200 <tspan class="val-float">(1.20)</tspan></text><line x1="495" y1="0" x2="495" y2="38" class="bid-ask-divider"/><text x="552" y="24" class="val-ask-high" text-anchor="middle">4500 <tspan class="val-float">(4.50)</tspan></text>
    <rect x="615" y="6" width="80" height="26" fill="#38bdf8" opacity="0.35" rx="2"/><text x="625" y="24" class="val-fixed">6300 <tspan class="val-float">(6.30)</tspan></text>
    <rect x="830" y="6" width="65" height="26" fill="#4ade80" opacity="0.35" rx="2"/><text x="840" y="24" class="val-delta-pos">+3100 <tspan class="val-float">(+3.10)</tspan></text>
  </g>

  <!-- РЯД 3 -->
  <g transform="translate(0, 216)">
    <rect x="20" y="0" width="1020" height="38" class="row-odd"/>
    <text x="35" y="24" class="text-idy">3</text><text x="70" y="24" class="text-price">$50.10</text><text x="115" y="24" class="text-meta">5010</text>
    <text x="207" y="24" class="val-fixed" text-anchor="middle">1500 <tspan class="val-float">(1.50)</tspan></text><line x1="265" y1="0" x2="265" y2="38" class="bid-ask-divider"/><text x="322" y="24" class="val-fixed" text-anchor="middle">800 <tspan class="val-float">(0.80)</tspan></text>
    <text x="437" y="24" class="val-fixed" text-anchor="middle">2500 <tspan class="val-float">(2.50)</tspan></text><line x1="495" y1="0" x2="495" y2="38" class="bid-ask-divider"/><text x="552" y="24" class="val-fixed" text-anchor="middle">3200 <tspan class="val-float">(3.20)</tspan></text>
    <rect x="615" y="6" width="100" height="26" fill="#38bdf8" opacity="0.45" rx="2"/><text x="625" y="24" class="val-fixed">8000 <tspan class="val-float">(8.00)</tspan></text>
    <rect x="830" y="6" width="15" height="26" fill="#f87171" opacity="0.25" rx="2"/><text x="840" y="24" class="val-delta-neg">-100 <tspan class="val-float">(-0.10)</tspan></text>
  </g>

  <!-- РЯД 4 (POC) -->
  <g transform="translate(0, 254)">
    <rect x="20" y="0" width="1020" height="38" fill="#1e1b10"/>
    <text x="35" y="24" class="text-idy">4</text><text x="70" y="24" class="text-price" fill="#facc15">$50.05</text><text x="115" y="24" class="text-meta">5005</text>
    <text x="207" y="24" class="val-bid-high" text-anchor="middle">3800 <tspan class="val-float">(3.80)</tspan></text><line x1="265" y1="0" x2="265" y2="38" class="bid-ask-divider"/><text x="322" y="24" class="val-fixed" text-anchor="middle">1400 <tspan class="val-float">(1.40)</tspan></text>
    <text x="437" y="24" class="val-fixed" text-anchor="middle">4200 <tspan class="val-float">(4.20)</tspan></text><line x1="495" y1="0" x2="495" y2="38" class="bid-ask-divider"/><text x="552" y="24" class="val-ask-high" text-anchor="middle">5800 <tspan class="val-float">(5.80)</tspan></text>
    <rect x="615" y="6" width="190" height="26" fill="#eab308" opacity="0.55" rx="2"/><text x="625" y="24" fill="#fef08a" font-weight="700" font-size="11px">15200 <tspan class="val-float" fill="#fde047">(15.20) POC</tspan></text>
    <rect x="830" y="6" width="25" height="26" fill="#f87171" opacity="0.3" rx="2"/><text x="840" y="24" class="val-delta-neg">-600 <tspan class="val-float">(-0.60)</tspan></text>
  </g>

  <!-- РЯД 5 (CENTER) -->
  <g transform="translate(0, 292)">
    <rect x="20" y="0" width="1020" height="38" class="center-row-bg"/>
    <text x="35" y="24" class="text-idy" fill="#38bdf8">5</text><text x="70" y="24" class="text-price" fill="#38bdf8">$50.00</text><text x="115" y="24" fill="#38bdf8" font-size="11px">5000</text>
    <text x="207" y="24" class="val-fixed" text-anchor="middle">3200 <tspan class="val-float">(3.20)</tspan></text><line x1="265" y1="0" x2="265" y2="38" class="bid-ask-divider"/><text x="322" y="24" class="val-fixed" text-anchor="middle">2100 <tspan class="val-float">(2.10)</tspan></text>
    <text x="437" y="24" class="val-fixed" text-anchor="middle">3100 <tspan class="val-float">(3.10)</tspan></text><line x1="495" y1="0" x2="495" y2="38" class="bid-ask-divider"/><text x="552" y="24" class="val-fixed" text-anchor="middle">3600 <tspan class="val-float">(3.60)</tspan></text>
    <rect x="615" y="6" width="150" height="26" fill="#38bdf8" opacity="0.5" rx="2"/><text x="625" y="24" class="val-fixed">12000 <tspan class="val-float">(12.00)</tspan></text>
    <rect x="830" y="6" width="25" height="26" fill="#f87171" opacity="0.3" rx="2"/><text x="840" y="24" class="val-delta-neg">-600 <tspan class="val-float">(-0.60)</tspan></text>
  </g>

  <!-- РЯД 6 -->
  <g transform="translate(0, 330)">
    <rect x="20" y="0" width="1020" height="38" class="row-even"/>
    <text x="35" y="24" class="text-idy">6</text><text x="70" y="24" class="text-price">$49.95</text><text x="115" y="24" class="text-meta">4995</text>
    <text x="207" y="24" class="val-bid-high" text-anchor="middle">4600 <tspan class="val-float">(4.60)</tspan></text><line x1="265" y1="0" x2="265" y2="38" class="bid-ask-divider"/><text x="322" y="24" class="val-fixed" text-anchor="middle">1100 <tspan class="val-float">(1.10)</tspan></text>
    <text x="437" y="24" class="val-fixed" text-anchor="middle">1800 <tspan class="val-float">(1.80)</tspan></text><line x1="495" y1="0" x2="495" y2="38" class="bid-ask-divider"/><text x="552" y="24" class="val-fixed" text-anchor="middle">2200 <tspan class="val-float">(2.20)</tspan></text>
    <rect x="615" y="6" width="125" height="26" fill="#38bdf8" opacity="0.4" rx="2"/><text x="625" y="24" class="val-fixed">9700 <tspan class="val-float">(9.70)</tspan></text>
    <rect x="830" y="6" width="70" height="26" fill="#f87171" opacity="0.4" rx="2"/><text x="840" y="24" class="val-delta-neg">-3100 <tspan class="val-float">(-3.10)</tspan></text>
  </g>

  <!-- РЯД 7 -->
  <g transform="translate(0, 368)">
    <rect x="20" y="0" width="1020" height="38" class="row-odd"/>
    <text x="35" y="24" class="text-idy">7</text><text x="70" y="24" class="text-price">$49.90</text><text x="115" y="24" class="text-meta">4990</text>
    <text x="207" y="24" class="val-fixed" text-anchor="middle">2400 <tspan class="val-float">(2.40)</tspan></text><line x1="265" y1="0" x2="265" y2="38" class="bid-ask-divider"/><text x="322" y="24" class="val-fixed" text-anchor="middle">700 <tspan class="val-float">(0.70)</tspan></text>
    <text x="437" y="24" class="val-fixed" text-anchor="middle">800 <tspan class="val-float">(0.80)</tspan></text><line x1="495" y1="0" x2="495" y2="38" class="bid-ask-divider"/><text x="552" y="24" class="val-fixed" text-anchor="middle">1500 <tspan class="val-float">(1.50)</tspan></text>
    <rect x="615" y="6" width="70" height="26" fill="#38bdf8" opacity="0.3" rx="2"/><text x="625" y="24" class="val-fixed">5400 <tspan class="val-float">(5.40)</tspan></text>
    <rect x="830" y="6" width="30" height="26" fill="#f87171" opacity="0.3" rx="2"/><text x="840" y="24" class="val-delta-neg">-1000 <tspan class="val-float">(-1.00)</tspan></text>
  </g>

  <!-- РЯД 8 -->
  <g transform="translate(0, 406)">
    <rect x="20" y="0" width="1020" height="38" class="row-even"/>
    <text x="35" y="24" class="text-idy">8</text><text x="70" y="24" class="text-price">$49.85</text><text x="115" y="24" class="text-meta">4985</text>
    <text x="207" y="24" class="val-fixed" text-anchor="middle">1800 <tspan class="val-float">(1.80)</tspan></text><line x1="265" y1="0" x2="265" y2="38" class="bid-ask-divider"/><text x="322" y="24" class="val-fixed" text-anchor="middle">300 <tspan class="val-float">(0.30)</tspan></text>
    <text x="437" y="24" class="val-fixed" text-anchor="middle">300 <tspan class="val-float">(0.30)</tspan></text><line x1="495" y1="0" x2="495" y2="38" class="bid-ask-divider"/><text x="552" y="24" class="val-fixed" text-anchor="middle">600 <tspan class="val-float">(0.60)</tspan></text>
    <rect x="615" y="6" width="40" height="26" fill="#38bdf8" opacity="0.25" rx="2"/><text x="625" y="24" class="val-fixed">3000 <tspan class="val-float">(3.00)</tspan></text>
    <rect x="830" y="6" width="35" height="26" fill="#f87171" opacity="0.3" rx="2"/><text x="840" y="24" class="val-delta-neg">-1200 <tspan class="val-float">(-1.20)</tspan></text>
  </g>

  <!-- РЯД 9 -->
  <g transform="translate(0, 444)">
    <rect x="20" y="0" width="1020" height="38" class="row-odd"/>
    <text x="35" y="24" class="text-idy">9</text><text x="70" y="24" class="text-price">$49.80</text><text x="115" y="24" class="text-meta">4980</text>
    <text x="207" y="24" class="val-fixed" text-anchor="middle">800 <tspan class="val-float">(0.80)</tspan></text><line x1="265" y1="0" x2="265" y2="38" class="bid-ask-divider"/><text x="322" y="24" class="val-zero" text-anchor="middle">0 (0.00)</text>
    <text x="437" y="24" class="val-zero" text-anchor="middle">0 (0.00)</text><line x1="495" y1="0" x2="495" y2="38" class="bid-ask-divider"/><text x="552" y="24" class="val-zero" text-anchor="middle">0 (0.00)</text>
    <rect x="615" y="6" width="15" height="26" fill="#38bdf8" opacity="0.2" rx="2"/><text x="625" y="24" class="val-fixed">800 <tspan class="val-float">(0.80)</tspan></text>
    <rect x="830" y="6" width="25" height="26" fill="#f87171" opacity="0.25" rx="2"/><text x="840" y="24" class="val-delta-neg">-800 <tspan class="val-float">(-0.80)</tspan></text>
  </g>

  <!-- РЯД 10 -->
  <g transform="translate(0, 482)">
    <rect x="20" y="0" width="1020" height="38" class="row-even"/>
    <text x="35" y="24" class="text-idy">10</text><text x="70" y="24" class="text-price">$49.75</text><text x="115" y="24" class="text-meta">4975</text>
    <text x="207" y="24" class="val-zero" text-anchor="middle">0 (0.00)</text><line x1="265" y1="0" x2="265" y2="38" class="bid-ask-divider"/><text x="322" y="24" class="val-zero" text-anchor="middle">0 (0.00)</text>
    <text x="437" y="24" class="val-zero" text-anchor="middle">0 (0.00)</text><line x1="495" y1="0" x2="495" y2="38" class="bid-ask-divider"/><text x="552" y="24" class="val-zero" text-anchor="middle">0 (0.00)</text>
    <text x="625" y="24" class="val-zero">0 (0.00)</text>
    <text x="840" y="24" class="val-zero">0 (0.00)</text>
  </g>

  <!-- Сетка и границы -->
  <line x1="150" y1="62" x2="150" y2="520" class="major-col-divider"/>
  <line x1="380" y1="62" x2="380" y2="520" class="major-col-divider"/>
  <line x1="610" y1="62" x2="610" y2="520" class="major-col-divider"/>
  <line x1="825" y1="62" x2="825" y2="520" class="major-col-divider"/>
  <rect x="20" y="62" width="1020" height="458" class="grid-border"/>

  <!-- Нижняя координатная строка (Index Bar) -->
  <g transform="translate(20, 526)">
    <rect width="1020" height="26" rx="3" fill="#121824" stroke="#1e2638" stroke-width="1"/>
    <text x="65" y="17" fill="#64748b" font-size="10px" text-anchor="middle">COORDINATES</text>
    <text x="187" y="17" class="text-idx" text-anchor="middle">idx: 0</text>
    <text x="302" y="17" class="text-idx" text-anchor="middle">idx: 1</text>
    <text x="417" y="17" class="text-idx" text-anchor="middle">idx: 2</text>
    <text x="532" y="17" class="text-idx" text-anchor="middle">idx: 3</text>
    <text x="717" y="17" fill="#eab308" font-size="10px" font-weight="700" text-anchor="middle">idx: 4 (colVP = -2)</text>
    <text x="932" y="17" fill="#c084fc" font-size="10px" font-weight="700" text-anchor="middle">idx: 5 (colDP = -1)</text>
  </g>
</svg>
